<?xml version="1.0" encoding="utf-8"?>
<!-- Generator: Adobe Illustrator 17.0.0, SVG Export Plug-In . SVG Version: 6.00 Build 0)  -->
<!DOCTYPE svg PUBLIC "-//W3C//DTD SVG 1.1//EN" "http://www.w3.org/Graphics/SVG/1.1/DTD/svg11.dtd">
<svg version="1.1" id="Слой_1" xmlns="http://www.w3.org/2000/svg" xmlns:xlink="http://www.w3.org/1999/xlink" x="0px" y="0px"
	 width="22.971px" height="14.485px" viewBox="9.272 2.681 22.971 14.485" enable-background="new 9.272 2.681 22.971 14.485"
	 xml:space="preserve">
<g>
	<path fill="#FFFFFF" d="M18.636,3.56c1.172-1.172,3.071-1.172,4.243,0l0,0c1.172,1.172,1.172,3.071,0,4.243l-8.485,8.485
		c-1.172,1.172-3.071,1.172-4.243,0l0,0c-1.172-1.172-1.172-3.071,0-4.243L18.636,3.56z"/>
	<path fill="#FFFFFF" d="M31.364,12.045c1.172,1.172,1.172,3.071,0,4.243l0,0c-1.172,1.172-3.071,1.172-4.243,0l-8.485-8.485
		c-1.172-1.172-1.172-3.071,0-4.243l0,0c1.172-1.172,3.071-1.172,4.243,0L31.364,12.045z"/>
</g>
</svg>
